<svg xmlns="http://www.w3.org/2000/svg" xmlns:xlink="http://www.w3.org/1999/xlink" width="500" zoomAndPan="magnify" viewBox="0 0 375 374.999991" height="500" preserveAspectRatio="xMidYMid meet" version="1.0"><defs><clipPath id="c7e71ec666"><path d="M 18.75 18.75 L 356.25 18.75 L 356.25 356.25 L 18.75 356.25 Z M 18.75 18.75 " clip-rule="nonzero"/></clipPath><clipPath id="9867ef7e7e"><path d="M 187.5 18.75 C 94.300781 18.75 18.75 94.300781 18.75 187.5 C 18.75 280.699219 94.300781 356.25 187.5 356.25 C 280.699219 356.25 356.25 280.699219 356.25 187.5 C 356.25 94.300781 280.699219 18.75 187.5 18.75 Z M 187.5 18.75 " clip-rule="nonzero"/></clipPath><clipPath id="f80a64c2cc"><path d="M 0.75 0.75 L 338.25 0.75 L 338.25 338.25 L 0.75 338.25 Z M 0.75 0.75 " clip-rule="nonzero"/></clipPath><clipPath id="a5424d156d"><path d="M 169.5 0.75 C 76.300781 0.75 0.75 76.300781 0.75 169.5 C 0.75 262.699219 76.300781 338.25 169.5 338.25 C 262.699219 338.25 338.25 262.699219 338.25 169.5 C 338.25 76.300781 262.699219 0.75 169.5 0.75 Z M 169.5 0.75 " clip-rule="nonzero"/></clipPath><clipPath id="4d4124cbcc"><rect x="0" width="339" y="0" height="339"/></clipPath></defs><rect x="-37.5" width="450" fill="#ffffff" y="-37.499999" height="449.999989" fill-opacity="1"/><rect x="-37.5" width="450" fill="#ffffff" y="-37.499999" height="449.999989" fill-opacity="1"/><g clip-path="url(#c7e71ec666)"><g clip-path="url(#9867ef7e7e)"><g transform="matrix(1, 0, 0, 1, 18, 18)"><g clip-path="url(#4d4124cbcc)"><g clip-path="url(#f80a64c2cc)"><g clip-path="url(#a5424d156d)"><path fill="#ffbd59" d="M 0.75 0.75 L 338.25 0.75 L 338.25 338.25 L 0.75 338.25 Z M 0.75 0.75 " fill-opacity="1" fill-rule="nonzero"/></g></g></g></g><path stroke-linecap="butt" transform="matrix(0.75, 0, 0, 0.75, 18.750003, 18.749999)" fill="none" stroke-linejoin="miter" d="M 225.00001 0.00000164167 C 100.734377 0.00000164167 -0.00000435833 100.734383 -0.00000435833 225.000016 C -0.00000435833 349.26565 100.734377 450.000031 225.00001 450.000031 C 349.265644 450.000031 450.000025 349.26565 450.000025 225.000016 C 450.000025 100.734383 349.265644 0.00000164167 225.00001 0.00000164167 Z M 225.00001 0.00000164167 " stroke="#000000" stroke-width="30" stroke-opacity="1" stroke-miterlimit="4"/></g></g></svg>