<svg xmlns="http://www.w3.org/2000/svg" xmlns:xlink="http://www.w3.org/1999/xlink" width="798" zoomAndPan="magnify" viewBox="0 0 598.5 179.999997" height="240" preserveAspectRatio="xMidYMid meet" version="1.0"><defs><g/><clipPath id="625b2aa316"><path d="M 0 0.0742188 L 598 0.0742188 L 598 179.925781 L 0 179.925781 Z M 0 0.0742188 " clip-rule="nonzero"/></clipPath><clipPath id="be3496635d"><rect x="0" width="598" y="0" height="152"/></clipPath><clipPath id="ba7191cb93"><path d="M 216.363281 36.046875 L 299 36.046875 L 299 145.0625 L 216.363281 145.0625 Z M 216.363281 36.046875 " clip-rule="nonzero"/></clipPath><clipPath id="e87504f90e"><path d="M 0.363281 0.046875 L 83 0.046875 L 83 109.0625 L 0.363281 109.0625 Z M 0.363281 0.046875 " clip-rule="nonzero"/></clipPath><clipPath id="7363e02298"><rect x="0" width="83" y="0" height="110"/></clipPath><clipPath id="5b001d04d6"><path d="M 219.386719 36.046875 L 293.574219 36.046875 L 293.574219 129.71875 L 219.386719 129.71875 Z M 219.386719 36.046875 " clip-rule="nonzero"/></clipPath></defs><g clip-path="url(#625b2aa316)"><path fill="#ffffff" d="M 0 0.0742188 L 598 0.0742188 L 598 179.925781 L 0 179.925781 Z M 0 0.0742188 " fill-opacity="1" fill-rule="nonzero"/><path fill="#ffffff" d="M 0 0.0742188 L 598 0.0742188 L 598 179.925781 L 0 179.925781 Z M 0 0.0742188 " fill-opacity="1" fill-rule="nonzero"/></g><g transform="matrix(1, 0, 0, 1, 0, 14)"><g clip-path="url(#be3496635d)"><g fill="#000000" fill-opacity="1"><g transform="translate(0.0309508, 112.64575)"><g><path d="M 27.1875 -16.171875 L 50.796875 -16.171875 L 50.796875 0 L 6.046875 0 L 6.046875 -76.046875 L 27.1875 -76.046875 Z M 27.1875 -16.171875 "/></g></g></g><g fill="#000000" fill-opacity="1"><g transform="translate(52.984313, 112.64575)"><g><path d="M 42.5 0.75 C 35.375 0.75 28.828125 -0.921875 22.859375 -4.265625 C 16.890625 -7.609375 12.160156 -12.242188 8.671875 -18.171875 C 5.191406 -24.109375 3.453125 -30.816406 3.453125 -38.296875 C 3.453125 -45.765625 5.191406 -52.460938 8.671875 -58.390625 C 12.160156 -64.328125 16.890625 -68.953125 22.859375 -72.265625 C 28.828125 -75.578125 35.375 -77.234375 42.5 -77.234375 C 49.6875 -77.234375 56.242188 -75.578125 62.171875 -72.265625 C 68.109375 -68.953125 72.800781 -64.328125 76.25 -58.390625 C 79.707031 -52.460938 81.4375 -45.765625 81.4375 -38.296875 C 81.4375 -30.816406 79.707031 -24.109375 76.25 -18.171875 C 72.800781 -12.242188 68.09375 -7.609375 62.125 -4.265625 C 56.15625 -0.921875 49.613281 0.75 42.5 0.75 Z M 42.5 -18.875 C 47.894531 -18.875 52.15625 -20.632812 55.28125 -24.15625 C 58.40625 -27.6875 59.96875 -32.398438 59.96875 -38.296875 C 59.96875 -44.328125 58.40625 -49.085938 55.28125 -52.578125 C 52.15625 -56.066406 47.894531 -57.8125 42.5 -57.8125 C 37.03125 -57.8125 32.75 -56.066406 29.65625 -52.578125 C 26.5625 -49.085938 25.015625 -44.328125 25.015625 -38.296875 C 25.015625 -32.328125 26.5625 -27.597656 29.65625 -24.109375 C 32.75 -20.617188 37.03125 -18.875 42.5 -18.875 Z M 42.5 -18.875 "/></g></g></g><g fill="#000000" fill-opacity="1"><g transform="translate(137.860677, 112.64575)"><g><path d="M 51.015625 0 L 27.1875 -33.328125 L 27.1875 0 L 6.046875 0 L 6.046875 -76.046875 L 27.1875 -76.046875 L 27.1875 -43.25 L 50.796875 -76.046875 L 75.171875 -76.046875 L 47.25 -39.15625 L 76.578125 0 Z M 51.015625 0 "/></g></g></g><g fill="#000000" fill-opacity="1"><g transform="translate(216.158318, 112.64575)"><g><path d="M 54.140625 -12.40625 L 27.1875 -12.40625 L 23.078125 0 L 0.859375 0 L 28.578125 -76.046875 L 52.953125 -76.046875 L 80.578125 0 L 58.25 0 Z M 48.859375 -28.578125 L 40.65625 -53.171875 L 32.578125 -28.578125 Z M 48.859375 -28.578125 "/></g></g></g><g fill="#000000" fill-opacity="1"><g transform="translate(297.583562, 112.64575)"><g><path d="M 76.46875 0 L 55.328125 0 L 27.1875 -42.5 L 27.1875 0 L 6.046875 0 L 6.046875 -76.046875 L 27.1875 -76.046875 L 55.328125 -33 L 55.328125 -76.046875 L 76.46875 -76.046875 Z M 76.46875 0 "/></g></g></g><g fill="#000000" fill-opacity="1"><g transform="translate(380.087247, 112.64575)"><g><path d="M 63.3125 -76.046875 L 63.3125 -59.21875 L 43.03125 -59.21875 L 43.03125 0 L 21.890625 0 L 21.890625 -59.21875 L 1.828125 -59.21875 L 1.828125 -76.046875 Z M 63.3125 -76.046875 "/></g></g></g><g fill="#000000" fill-opacity="1"><g transform="translate(445.227412, 112.64575)"><g><path d="M 44.546875 0 L 29.453125 -28.046875 L 27.1875 -28.046875 L 27.1875 0 L 6.046875 0 L 6.046875 -76.046875 L 39.375 -76.046875 C 45.476562 -76.046875 50.648438 -74.984375 54.890625 -72.859375 C 59.140625 -70.734375 62.34375 -67.816406 64.5 -64.109375 C 66.65625 -60.410156 67.734375 -56.265625 67.734375 -51.671875 C 67.734375 -46.492188 66.3125 -41.941406 63.46875 -38.015625 C 60.632812 -34.097656 56.484375 -31.3125 51.015625 -29.65625 L 68.171875 0 Z M 27.1875 -42.5 L 37.640625 -42.5 C 40.515625 -42.5 42.671875 -43.179688 44.109375 -44.546875 C 45.546875 -45.910156 46.265625 -47.890625 46.265625 -50.484375 C 46.265625 -52.921875 45.523438 -54.84375 44.046875 -56.25 C 42.578125 -57.65625 40.441406 -58.359375 37.640625 -58.359375 L 27.1875 -58.359375 Z M 27.1875 -42.5 "/></g></g></g><g fill="#000000" fill-opacity="1"><g transform="translate(516.514968, 112.64575)"><g><path d="M 54.140625 -12.40625 L 27.1875 -12.40625 L 23.078125 0 L 0.859375 0 L 28.578125 -76.046875 L 52.953125 -76.046875 L 80.578125 0 L 58.25 0 Z M 48.859375 -28.578125 L 40.65625 -53.171875 L 32.578125 -28.578125 Z M 48.859375 -28.578125 "/></g></g></g></g></g><g clip-path="url(#ba7191cb93)"><g transform="matrix(1, 0, 0, 1, 216, 36)"><g clip-path="url(#7363e02298)"><g clip-path="url(#e87504f90e)"><path fill="#ffffff" d="M 0.363281 0.046875 L 83 0.046875 L 83 109.148438 L 0.363281 109.148438 Z M 0.363281 0.046875 " fill-opacity="1" fill-rule="nonzero"/></g></g></g></g><g clip-path="url(#5b001d04d6)"><path fill="#000000" d="M 228.3125 120.730469 C 228.335938 120.730469 228.351562 120.703125 228.351562 120.679688 C 228.351562 120.667969 228.351562 120.652344 228.335938 120.652344 C 228.105469 120.433594 227.664062 120.0625 227.019531 119.5625 C 226.890625 119.460938 226.851562 119.28125 226.90625 119.039062 C 226.957031 118.792969 227.097656 118.613281 227.34375 118.5 C 227.355469 118.488281 227.367188 118.472656 227.367188 118.449219 C 227.367188 118.421875 227.355469 118.410156 227.332031 118.398438 C 227.214844 118.371094 227.109375 118.308594 227.035156 118.230469 C 226.867188 118.050781 227.007812 117.617188 227.175781 117.472656 C 227.203125 117.460938 227.214844 117.421875 227.1875 117.398438 C 226.980469 117.101562 226.878906 116.78125 226.90625 116.421875 C 226.90625 116.371094 226.941406 116.332031 226.996094 116.332031 C 227.019531 116.332031 227.046875 116.347656 227.058594 116.359375 L 227.757812 117.230469 C 227.78125 117.257812 227.820312 117.257812 227.832031 117.230469 C 227.832031 117.230469 227.847656 117.230469 227.847656 117.230469 L 227.925781 117.128906 C 227.9375 117.101562 227.960938 117.101562 227.988281 117.101562 C 228.027344 117.101562 228.066406 117.128906 228.066406 117.167969 L 228.105469 117.640625 C 228.117188 117.667969 228.117188 117.691406 228.144531 117.703125 C 228.234375 117.792969 228.324219 117.921875 228.414062 118.101562 C 228.441406 118.167969 228.492188 118.203125 228.542969 118.230469 L 229.445312 118.550781 C 229.484375 118.5625 229.523438 118.5625 229.550781 118.5625 L 231.449219 118.5625 C 231.472656 118.5625 231.5 118.550781 231.5 118.527344 L 231.691406 117.691406 C 231.707031 117.679688 231.707031 117.679688 231.707031 117.667969 C 231.730469 117.601562 231.820312 117.589844 231.976562 117.652344 C 231.976562 117.652344 231.988281 117.652344 232.003906 117.652344 C 232.039062 117.652344 232.066406 117.628906 232.066406 117.589844 C 232.066406 117.578125 232.066406 117.578125 232.066406 117.578125 L 232.027344 117.128906 C 232.027344 117.089844 232.054688 117.0625 232.09375 117.0625 L 232.375 117.089844 C 232.375 117.089844 232.390625 117.089844 232.390625 117.089844 C 232.429688 117.089844 232.453125 117.0625 232.453125 117.027344 C 232.453125 117 232.441406 116.988281 232.429688 116.972656 C 232.171875 116.78125 232.105469 116.539062 232.222656 116.21875 C 232.285156 116.039062 232.492188 115.988281 232.503906 115.78125 C 232.519531 115.5625 232.582031 115.421875 232.726562 115.332031 C 232.765625 115.320312 232.789062 115.28125 232.789062 115.230469 C 232.828125 114.78125 232.878906 114.308594 232.894531 113.910156 C 232.984375 110.921875 233.046875 108.601562 233.113281 106.960938 C 233.113281 106.9375 233.113281 106.921875 233.097656 106.910156 L 232.996094 106.78125 C 232.96875 106.746094 232.945312 106.691406 232.957031 106.640625 C 232.96875 106.191406 233.164062 105.730469 232.558594 105.550781 C 232.46875 105.527344 232.402344 105.4375 232.390625 105.347656 L 232.363281 105.15625 C 232.363281 105.039062 232.261719 104.949219 232.144531 104.9375 C 231.976562 104.925781 231.875 104.898438 231.820312 104.871094 C 231.796875 104.847656 231.78125 104.820312 231.769531 104.796875 L 231.71875 104.640625 C 231.707031 104.601562 231.667969 104.578125 231.628906 104.566406 L 231.019531 104.398438 C 230.96875 104.386719 230.929688 104.347656 230.890625 104.308594 C 230.890625 104.296875 230.878906 104.296875 230.878906 104.269531 C 230.839844 104.21875 230.777344 104.179688 230.699219 104.179688 L 226.75 103.820312 C 226.710938 103.820312 226.683594 103.78125 226.683594 103.746094 L 226.644531 102.730469 C 226.632812 102.707031 226.621094 102.667969 226.582031 102.65625 C 226.183594 102.515625 225.847656 102.257812 225.5625 101.910156 C 225.535156 101.871094 225.511719 101.859375 225.472656 101.847656 C 225.238281 101.796875 224.851562 101.769531 224.605469 101.679688 C 223.859375 101.425781 223.214844 101.140625 222.671875 100.835938 C 222.363281 100.667969 222.039062 100.398438 221.78125 100.078125 C 221.546875 99.785156 221.304688 99.464844 221.03125 99.140625 C 220.863281 98.9375 220.863281 98.746094 221.058594 98.550781 C 221.574219 98 222.167969 97.578125 222.824219 97.296875 C 224.53125 96.554688 226.207031 95.875 227.871094 95.285156 C 231.125 94.117188 233.332031 93.296875 234.46875 92.824219 C 236.121094 92.15625 237.847656 91.425781 239.679688 90.65625 C 240.367188 90.359375 241.191406 90.179688 242.132812 90.128906 C 242.625 90.105469 243 90.144531 243.269531 90.257812 C 243.515625 90.359375 243.707031 90.414062 243.851562 90.425781 C 244.300781 90.464844 244.742188 90.476562 245.152344 90.476562 C 245.203125 90.464844 245.230469 90.4375 245.242188 90.386719 L 245.347656 89.246094 C 245.347656 89.246094 245.347656 89.246094 245.347656 89.234375 C 245.347656 89.207031 245.320312 89.183594 245.28125 89.183594 L 243.050781 89.183594 C 243.023438 89.183594 243 89.15625 242.984375 89.117188 L 242.90625 88.21875 C 242.894531 88.167969 242.855469 88.128906 242.804688 88.117188 C 241.421875 87.835938 240.25 87.59375 239.050781 87.128906 C 238.726562 87.003906 238.441406 86.847656 238.210938 86.65625 C 237.28125 85.886719 238.09375 85.167969 238.753906 84.65625 C 239.0625 84.398438 239.5 84.117188 240.042969 83.796875 C 240.738281 83.386719 241.605469 82.914062 242.609375 82.398438 C 243.953125 81.695312 245.554688 80.898438 247.039062 81.09375 C 247.449219 81.144531 247.683594 81.167969 247.746094 81.167969 C 247.761719 81.167969 247.785156 81.15625 247.785156 81.132812 L 247.851562 80.4375 C 247.851562 80.425781 247.835938 80.414062 247.824219 80.414062 C 247.128906 80.375 246.484375 80.386719 245.863281 80.476562 C 245.835938 80.476562 245.8125 80.453125 245.8125 80.425781 C 245.8125 80.414062 245.8125 80.414062 245.8125 80.414062 C 245.851562 80.167969 245.851562 79.914062 245.796875 79.65625 C 245.773438 79.554688 245.695312 79.464844 245.59375 79.4375 C 244.945312 79.257812 243.386719 78.976562 242.351562 78.566406 C 242.160156 78.492188 241.980469 78.375 241.824219 78.222656 C 241.332031 77.757812 241.359375 77.285156 241.875 76.824219 C 242.261719 76.476562 242.664062 76.171875 243.089844 75.886719 C 244.519531 74.964844 245.929688 74.222656 247.335938 73.644531 C 247.929688 73.414062 248.574219 73.464844 249.296875 73.554688 C 249.335938 73.566406 249.386719 73.527344 249.386719 73.476562 L 249.4375 72.914062 C 249.4375 72.914062 249.4375 72.914062 249.4375 72.902344 C 249.4375 72.875 249.414062 72.835938 249.375 72.835938 L 247.695312 72.914062 C 247.671875 72.914062 247.644531 72.902344 247.644531 72.875 L 247.578125 72.171875 C 247.566406 72.132812 247.554688 72.09375 247.515625 72.082031 C 247.359375 71.992188 247.191406 71.925781 247.039062 71.902344 C 246.378906 71.761719 245.65625 71.566406 244.882812 71.3125 C 244.429688 71.171875 243.734375 70.671875 243.964844 70.105469 C 244.019531 69.964844 244.160156 69.8125 244.367188 69.644531 C 245.527344 68.695312 246.882812 67.914062 248.40625 67.3125 C 249.023438 67.066406 249.671875 67.015625 250.328125 67.144531 C 250.339844 67.144531 250.339844 67.144531 250.355469 67.144531 C 250.40625 67.144531 250.445312 67.105469 250.445312 67.054688 L 250.445312 66.695312 C 250.445312 66.683594 250.445312 66.683594 250.445312 66.683594 C 250.445312 66.632812 250.394531 66.59375 250.339844 66.59375 L 248.988281 66.644531 C 248.960938 66.65625 248.933594 66.632812 248.933594 66.605469 L 248.933594 66.054688 C 248.933594 65.976562 248.882812 65.902344 248.820312 65.875 C 248.675781 65.835938 248.535156 65.800781 248.40625 65.761719 C 247.386719 65.53125 246.742188 65.363281 246.46875 65.261719 C 246.210938 65.15625 245.953125 65.03125 245.785156 64.800781 C 245.410156 64.285156 245.8125 63.902344 246.25 63.59375 C 247.039062 63.015625 247.8125 62.542969 248.574219 62.160156 C 249.476562 61.695312 250.238281 61.425781 251.207031 61.605469 C 251.21875 61.605469 251.21875 61.605469 251.230469 61.605469 C 251.285156 61.605469 251.335938 61.570312 251.335938 61.503906 L 251.324219 61.324219 C 251.324219 61.261719 251.269531 61.210938 251.207031 61.210938 L 249.992188 61.261719 C 249.953125 61.261719 249.929688 61.234375 249.929688 61.195312 C 249.953125 60.992188 249.953125 60.824219 249.929688 60.683594 C 249.929688 60.660156 249.902344 60.632812 249.863281 60.621094 C 249.695312 60.570312 249.0625 60.390625 248.003906 60.09375 C 247.539062 59.980469 246.921875 59.734375 246.984375 59.171875 C 246.984375 59.132812 247.011719 59.09375 247.039062 59.054688 C 247.191406 58.863281 247.359375 58.695312 247.566406 58.554688 C 248.507812 57.902344 249.398438 57.390625 250.25 57.019531 C 250.765625 56.785156 251.324219 56.722656 251.890625 56.839844 C 251.902344 56.839844 251.902344 56.839844 251.902344 56.839844 C 251.96875 56.839844 252.007812 56.800781 252.019531 56.75 C 252.019531 56.75 252.019531 56.734375 252.019531 56.734375 L 252.019531 56.554688 C 252.019531 56.503906 251.980469 56.464844 251.917969 56.464844 L 250.871094 56.464844 C 250.820312 56.464844 250.792969 56.429688 250.78125 56.390625 L 250.765625 55.941406 C 250.765625 55.890625 250.730469 55.851562 250.691406 55.839844 C 250.199219 55.710938 249.710938 55.570312 249.230469 55.429688 C 248.804688 55.300781 248.1875 55.09375 248.300781 54.570312 C 248.300781 54.542969 248.316406 54.503906 248.339844 54.480469 C 248.46875 54.300781 248.691406 54.09375 249 53.863281 C 249.476562 53.53125 249.980469 53.210938 250.523438 52.914062 C 251.140625 52.59375 251.824219 52.3125 252.484375 52.503906 C 252.523438 52.519531 252.574219 52.492188 252.574219 52.441406 L 252.613281 52.273438 C 252.613281 52.234375 252.585938 52.199219 252.546875 52.199219 L 251.800781 52.199219 C 251.75 52.199219 251.695312 52.144531 251.695312 52.082031 C 251.695312 52.082031 251.695312 52.070312 251.695312 52.054688 C 251.785156 51.734375 251.722656 51.570312 251.488281 51.53125 C 251.464844 51.53125 251.117188 51.453125 250.445312 51.300781 C 250.070312 51.222656 249.140625 50.839844 249.605469 50.289062 C 249.644531 50.234375 249.761719 50.144531 249.941406 50.003906 C 250.625 49.503906 251.566406 48.890625 252.378906 48.722656 C 252.652344 48.660156 252.988281 48.671875 253.386719 48.75 C 253.386719 48.75 253.386719 48.75 253.398438 48.75 C 253.4375 48.75 253.476562 48.722656 253.492188 48.671875 L 253.476562 48.558594 C 253.476562 48.503906 253.4375 48.480469 253.386719 48.480469 L 252.652344 48.503906 C 252.613281 48.503906 252.574219 48.480469 252.574219 48.441406 L 252.5625 48.160156 C 252.5625 48.082031 252.511719 48.003906 252.417969 47.980469 C 252.277344 47.929688 251.839844 47.800781 251.101562 47.59375 C 250.898438 47.542969 250.703125 47.402344 250.523438 47.171875 C 250.496094 47.148438 250.484375 47.109375 250.484375 47.070312 C 250.496094 46.914062 250.535156 46.800781 250.625 46.722656 C 250.988281 46.390625 251.503906 46.042969 252.1875 45.683594 C 252.730469 45.402344 253.269531 45.328125 253.839844 45.453125 C 253.878906 45.453125 253.902344 45.441406 253.917969 45.402344 C 253.917969 45.402344 253.917969 45.390625 253.917969 45.390625 L 253.917969 45.363281 C 253.917969 45.328125 253.890625 45.300781 253.851562 45.300781 L 253.296875 45.273438 C 253.246094 45.273438 253.207031 45.222656 253.207031 45.183594 L 253.207031 45.070312 C 253.207031 44.96875 253.140625 44.878906 253.039062 44.851562 C 252.40625 44.699219 251.722656 44.648438 251.476562 44.199219 C 251.414062 44.070312 251.425781 43.917969 251.515625 43.8125 C 251.65625 43.632812 251.839844 43.492188 252.03125 43.363281 C 252.769531 42.902344 253.375 42.507812 254.148438 42.648438 C 254.160156 42.648438 254.160156 42.648438 254.160156 42.648438 C 254.1875 42.648438 254.214844 42.632812 254.214844 42.609375 C 254.214844 42.597656 254.199219 42.570312 254.175781 42.570312 C 254.097656 42.53125 253.957031 42.492188 253.789062 42.46875 C 253.75 42.453125 253.722656 42.429688 253.722656 42.390625 C 253.722656 42.25 253.621094 42.160156 253.4375 42.109375 C 253.050781 42.007812 252.742188 41.902344 252.511719 41.8125 C 252.082031 41.621094 251.542969 41.121094 252.121094 40.699219 C 252.367188 40.519531 252.769531 40.238281 253.335938 39.867188 C 253.789062 39.558594 254.070312 39.261719 254.550781 38.851562 C 254.574219 38.828125 254.601562 38.800781 254.640625 38.789062 C 254.871094 38.671875 255.128906 38.597656 255.425781 38.558594 C 255.453125 38.558594 255.476562 38.53125 255.476562 38.492188 C 255.476562 38.46875 255.453125 38.457031 255.4375 38.441406 C 255.273438 38.378906 255.207031 38.277344 255.257812 38.121094 C 255.347656 37.851562 255.363281 37.828125 255.363281 37.507812 C 255.363281 37.429688 255.425781 37.378906 255.492188 37.378906 C 255.492188 37.378906 255.503906 37.378906 255.503906 37.378906 L 255.734375 37.402344 C 255.734375 37.402344 255.734375 37.402344 255.75 37.402344 C 255.839844 37.402344 255.929688 37.328125 255.929688 37.222656 C 255.929688 37.199219 255.917969 37.171875 255.902344 37.148438 C 255.734375 36.828125 255.8125 36.546875 256.125 36.3125 C 256.484375 36.046875 256.652344 36.199219 256.898438 36.507812 C 257.089844 36.738281 256.976562 37.007812 256.9375 37.210938 C 256.921875 37.222656 256.921875 37.238281 256.921875 37.25 C 256.921875 37.339844 257 37.402344 257.089844 37.402344 C 257.089844 37.402344 257.089844 37.402344 257.105469 37.402344 L 257.375 37.378906 C 257.414062 37.378906 257.453125 37.402344 257.453125 37.429688 L 257.53125 38.277344 C 257.53125 38.277344 257.53125 38.289062 257.53125 38.289062 C 257.53125 38.339844 257.492188 38.390625 257.441406 38.402344 L 257.335938 38.429688 C 257.3125 38.441406 257.296875 38.457031 257.296875 38.492188 C 257.296875 38.519531 257.324219 38.542969 257.347656 38.542969 C 257.789062 38.570312 258.164062 38.722656 258.460938 39.007812 C 259.039062 39.558594 259.777344 40.109375 260.640625 40.660156 C 261 40.890625 261.027344 41.171875 260.71875 41.53125 C 260.421875 41.863281 259.683594 42.03125 259.273438 42.132812 C 259.234375 42.148438 259.195312 42.171875 259.183594 42.210938 C 259.15625 42.238281 259.128906 42.300781 259.117188 42.363281 C 259.117188 42.402344 259.078125 42.441406 259.039062 42.441406 L 258.679688 42.542969 C 258.679688 42.542969 258.664062 42.558594 258.664062 42.570312 C 258.652344 42.582031 258.652344 42.609375 258.679688 42.621094 C 258.691406 42.632812 258.691406 42.632812 258.703125 42.632812 C 259.167969 42.570312 259.621094 42.671875 260.074219 42.917969 C 260.433594 43.121094 260.796875 43.363281 261.15625 43.648438 C 261.699219 44.070312 261.15625 44.519531 260.742188 44.621094 C 260.5625 44.660156 260.242188 44.738281 259.789062 44.839844 C 259.660156 44.863281 259.582031 44.96875 259.570312 45.109375 C 259.570312 45.132812 259.570312 45.160156 259.554688 45.199219 C 259.542969 45.238281 259.503906 45.261719 259.464844 45.261719 L 258.949219 45.3125 C 258.910156 45.3125 258.886719 45.339844 258.886719 45.378906 L 258.898438 45.417969 C 258.898438 45.453125 258.9375 45.46875 258.960938 45.46875 C 260.046875 45.199219 261.324219 45.992188 262.085938 46.660156 C 262.578125 47.09375 262.058594 47.503906 261.632812 47.621094 C 261.207031 47.738281 260.78125 47.839844 260.371094 47.953125 C 260.316406 47.96875 260.277344 47.992188 260.265625 48.042969 C 260.226562 48.132812 260.214844 48.25 260.226562 48.378906 C 260.226562 48.378906 260.226562 48.390625 260.226562 48.390625 C 260.226562 48.46875 260.175781 48.519531 260.097656 48.519531 L 259.402344 48.480469 C 259.375 48.480469 259.363281 48.503906 259.351562 48.53125 C 259.351562 48.632812 259.351562 48.683594 259.351562 48.699219 C 259.363281 48.722656 259.402344 48.75 259.441406 48.738281 C 260.058594 48.621094 260.667969 48.710938 261.246094 48.992188 C 261.726562 49.234375 262.226562 49.53125 262.730469 49.878906 C 263.003906 50.058594 263.183594 50.222656 263.285156 50.351562 C 263.3125 50.390625 263.324219 50.429688 263.324219 50.46875 C 263.375 51.003906 262.808594 51.234375 262.371094 51.324219 C 261.6875 51.46875 261.335938 51.53125 261.335938 51.53125 C 261.105469 51.554688 261.015625 51.734375 261.078125 52.054688 C 261.078125 52.070312 261.078125 52.070312 261.078125 52.082031 C 261.078125 52.132812 261.039062 52.183594 260.988281 52.183594 L 260.242188 52.210938 C 260.242188 52.210938 260.226562 52.210938 260.226562 52.210938 C 260.148438 52.222656 260.097656 52.289062 260.097656 52.363281 L 260.113281 52.402344 C 260.113281 52.402344 260.113281 52.402344 260.113281 52.414062 C 260.125 52.480469 260.1875 52.519531 260.253906 52.503906 C 260.265625 52.503906 260.265625 52.503906 260.265625 52.503906 C 260.757812 52.351562 261.335938 52.429688 261.984375 52.75 C 262.898438 53.183594 263.671875 53.699219 264.320312 54.273438 C 264.835938 54.75 264.242188 55.210938 263.800781 55.363281 C 263.3125 55.542969 262.746094 55.699219 262.125 55.8125 C 262.035156 55.839844 261.984375 55.902344 261.984375 55.992188 L 261.996094 56.390625 C 261.996094 56.429688 261.96875 56.453125 261.929688 56.453125 L 260.910156 56.453125 C 260.898438 56.453125 260.898438 56.453125 260.898438 56.453125 C 260.835938 56.453125 260.796875 56.519531 260.796875 56.570312 C 260.796875 56.570312 260.796875 56.582031 260.796875 56.582031 L 260.808594 56.75 C 260.820312 56.800781 260.859375 56.839844 260.925781 56.839844 C 260.9375 56.839844 260.949219 56.839844 260.964844 56.839844 C 261.414062 56.671875 261.996094 56.734375 262.691406 57.042969 C 263.699219 57.492188 264.628906 58.054688 265.492188 58.722656 C 265.636719 58.839844 265.738281 58.964844 265.804688 59.121094 C 265.828125 59.160156 265.828125 59.210938 265.828125 59.25 C 265.777344 59.503906 265.648438 59.683594 265.429688 59.8125 C 264.730469 60.195312 263.671875 60.363281 262.964844 60.582031 C 262.898438 60.59375 262.847656 60.660156 262.835938 60.722656 C 262.796875 60.875 262.808594 61.03125 262.835938 61.171875 C 262.847656 61.171875 262.847656 61.183594 262.847656 61.183594 C 262.847656 61.210938 262.820312 61.234375 262.78125 61.234375 L 261.570312 61.234375 C 261.53125 61.234375 261.503906 61.261719 261.503906 61.300781 L 261.519531 61.554688 C 261.519531 61.59375 261.558594 61.621094 261.59375 61.621094 C 262.472656 61.414062 263.144531 61.644531 263.96875 62.054688 C 264.988281 62.542969 266.113281 63.160156 266.9375 63.902344 C 267.417969 64.324219 267.15625 64.824219 266.707031 65.105469 C 266.449219 65.261719 266.125 65.375 265.75 65.464844 C 265.144531 65.59375 264.578125 65.722656 264.035156 65.863281 C 263.984375 65.875 263.945312 65.914062 263.929688 65.953125 C 263.828125 66.105469 263.828125 66.363281 263.855469 66.554688 C 263.867188 66.59375 263.839844 66.621094 263.800781 66.621094 L 262.433594 66.621094 C 262.382812 66.621094 262.34375 66.671875 262.34375 66.722656 L 262.382812 67.082031 C 262.382812 67.121094 262.421875 67.15625 262.472656 67.15625 C 262.472656 67.15625 262.484375 67.15625 262.484375 67.15625 C 263.027344 67.066406 263.503906 67.066406 263.90625 67.171875 C 264.332031 67.261719 264.835938 67.453125 265.414062 67.746094 C 266.5 68.296875 267.480469 68.914062 268.398438 69.59375 C 269.699219 70.582031 268.191406 71.261719 267.378906 71.476562 C 266.976562 71.59375 266.398438 71.734375 265.648438 71.914062 C 265.570312 71.925781 265.453125 71.976562 265.285156 72.054688 C 265.261719 72.066406 265.234375 72.09375 265.222656 72.117188 C 265.15625 72.324219 265.132812 72.554688 265.15625 72.8125 C 265.15625 72.851562 265.132812 72.875 265.09375 72.875 L 263.441406 72.875 C 263.441406 72.875 263.441406 72.875 263.429688 72.875 C 263.390625 72.886719 263.363281 72.925781 263.363281 72.964844 L 263.414062 73.476562 C 263.414062 73.515625 263.453125 73.554688 263.492188 73.554688 C 263.492188 73.554688 263.503906 73.554688 263.503906 73.554688 C 264.433594 73.425781 265.082031 73.425781 265.957031 73.8125 C 267.390625 74.464844 268.746094 75.207031 270.023438 76.042969 C 270.382812 76.285156 271.261719 76.914062 271.339844 77.386719 C 271.417969 77.875 270.914062 78.347656 270.511719 78.527344 C 269.558594 78.953125 268.421875 79.132812 267.300781 79.386719 C 267.183594 79.414062 267.09375 79.503906 267.054688 79.617188 C 266.976562 79.835938 266.964844 80.09375 266.988281 80.414062 C 266.988281 80.453125 266.964844 80.476562 266.925781 80.476562 C 266.292969 80.386719 265.636719 80.363281 264.949219 80.414062 C 264.9375 80.414062 264.925781 80.425781 264.925781 80.4375 L 265.003906 81.15625 C 265.003906 81.167969 265.015625 81.183594 265.027344 81.183594 C 265.648438 81.117188 265.996094 81.066406 266.113281 81.066406 C 266.988281 81.015625 268.0625 81.375 268.863281 81.746094 C 270.371094 82.4375 271.828125 83.207031 273.238281 84.054688 C 273.832031 84.414062 275.339844 85.308594 274.980469 86.167969 C 274.695312 86.847656 273.816406 87.144531 273.109375 87.375 C 272.230469 87.644531 271.339844 87.847656 270.421875 88.015625 C 270.359375 88.027344 270.230469 88.066406 270.050781 88.128906 C 270.011719 88.144531 269.984375 88.183594 269.984375 88.207031 C 269.882812 88.554688 269.84375 88.859375 269.867188 89.144531 C 269.867188 89.15625 269.867188 89.167969 269.84375 89.167969 L 267.492188 89.167969 C 267.46875 89.167969 267.453125 89.195312 267.453125 89.21875 C 267.453125 89.21875 267.453125 89.21875 267.453125 89.234375 L 267.558594 90.425781 C 267.570312 90.464844 267.597656 90.488281 267.636719 90.488281 L 269.03125 90.425781 C 269.042969 90.425781 269.066406 90.425781 269.082031 90.414062 C 269.609375 90.195312 269.894531 90.09375 270.449219 90.117188 C 271.105469 90.15625 271.699219 90.234375 272.230469 90.359375 C 272.5 90.425781 273.054688 90.644531 273.90625 90.988281 C 277.753906 92.578125 280 93.488281 280.632812 93.71875 C 283.714844 94.808594 286.867188 95.910156 289.949219 97.269531 C 290.75 97.617188 291.523438 98.105469 291.9375 98.808594 C 291.964844 98.835938 291.964844 98.875 291.9375 98.910156 C 291.871094 99.015625 291.796875 99.128906 291.691406 99.257812 C 291.574219 99.410156 291.304688 99.730469 290.867188 100.257812 C 290.710938 100.4375 290.453125 100.640625 290.078125 100.847656 C 289.226562 101.335938 288.324219 101.667969 287.355469 101.847656 C 287.316406 101.859375 287.292969 101.886719 287.265625 101.910156 C 286.929688 102.28125 286.59375 102.527344 286.21875 102.667969 C 286.179688 102.679688 286.15625 102.71875 286.15625 102.757812 L 286.15625 103.71875 C 286.15625 103.769531 286.117188 103.820312 286.050781 103.835938 C 284.851562 103.988281 283.1875 104.066406 282.140625 104.179688 C 282.011719 104.191406 281.933594 104.230469 281.898438 104.308594 C 281.882812 104.320312 281.859375 104.347656 281.84375 104.347656 L 281.210938 104.527344 C 281.1875 104.539062 281.175781 104.539062 281.160156 104.566406 L 280.96875 104.808594 C 280.941406 104.820312 280.929688 104.835938 280.902344 104.847656 L 280.566406 104.976562 C 280.488281 105 280.4375 105.066406 280.4375 105.140625 L 280.414062 105.425781 C 280.398438 105.449219 280.398438 105.460938 280.375 105.476562 L 280 105.691406 C 279.910156 105.746094 279.859375 105.847656 279.859375 105.949219 L 279.859375 106.691406 C 279.859375 106.71875 279.84375 106.757812 279.820312 106.769531 C 279.78125 106.808594 279.753906 106.859375 279.726562 106.910156 C 279.714844 106.9375 279.714844 106.960938 279.714844 106.988281 C 279.804688 109.386719 279.894531 111.871094 279.972656 114.449219 C 279.988281 114.667969 280.011719 114.9375 280.050781 115.28125 C 280.0625 115.320312 280.089844 115.359375 280.128906 115.359375 L 280.207031 115.382812 C 280.246094 115.382812 280.285156 115.421875 280.285156 115.460938 L 280.347656 115.832031 C 280.359375 115.859375 280.359375 115.898438 280.386719 115.9375 C 280.425781 116.027344 280.542969 116.050781 280.59375 116.179688 C 280.695312 116.527344 280.644531 116.769531 280.425781 116.921875 C 280.398438 116.9375 280.386719 116.972656 280.386719 117 C 280.386719 117.0625 280.425781 117.101562 280.488281 117.101562 C 280.503906 117.101562 280.515625 117.101562 280.515625 117.101562 C 280.671875 117.050781 280.746094 117.050781 280.773438 117.128906 C 280.785156 117.128906 280.785156 117.140625 280.785156 117.140625 L 280.734375 117.617188 C 280.734375 117.617188 280.734375 117.628906 280.734375 117.628906 C 280.746094 117.667969 280.785156 117.691406 280.824219 117.691406 C 280.824219 117.691406 280.839844 117.691406 280.839844 117.691406 C 280.941406 117.640625 281.019531 117.640625 281.070312 117.652344 C 281.097656 117.667969 281.109375 117.691406 281.121094 117.71875 L 281.265625 118.4375 C 281.277344 118.5 281.328125 118.539062 281.394531 118.539062 C 282.128906 118.5625 282.785156 118.5625 283.394531 118.5625 C 283.585938 118.5625 283.769531 118.347656 283.949219 118.308594 C 284.078125 118.292969 284.179688 118.28125 284.269531 118.269531 C 284.335938 118.269531 284.398438 118.21875 284.425781 118.152344 C 284.492188 118 284.566406 117.882812 284.671875 117.78125 C 284.710938 117.730469 284.722656 117.679688 284.722656 117.617188 L 284.722656 117.167969 C 284.722656 117.128906 284.761719 117.101562 284.789062 117.101562 C 284.8125 117.101562 284.828125 117.117188 284.839844 117.128906 L 284.941406 117.257812 C 284.957031 117.269531 284.96875 117.28125 284.980469 117.28125 C 284.992188 117.28125 285.007812 117.269531 285.019531 117.257812 L 285.753906 116.347656 C 285.769531 116.332031 285.792969 116.320312 285.820312 116.320312 C 285.871094 116.320312 285.910156 116.347656 285.910156 116.398438 C 285.949219 116.769531 285.859375 117.089844 285.652344 117.347656 C 285.652344 117.347656 285.640625 117.347656 285.640625 117.347656 C 285.625 117.382812 285.625 117.421875 285.664062 117.449219 C 285.753906 117.5 285.820312 117.640625 285.859375 117.859375 C 285.910156 118.167969 285.78125 118.347656 285.484375 118.398438 C 285.457031 118.398438 285.433594 118.421875 285.433594 118.449219 C 285.433594 118.472656 285.445312 118.488281 285.457031 118.5 C 285.769531 118.71875 285.976562 118.910156 285.9375 119.320312 C 285.921875 119.410156 285.859375 119.5 285.730469 119.613281 C 285.226562 120.0625 284.839844 120.382812 284.566406 120.5625 C 284.53125 120.601562 284.503906 120.628906 284.492188 120.652344 C 284.476562 120.667969 284.476562 120.679688 284.476562 120.691406 C 284.476562 120.742188 284.503906 120.769531 284.554688 120.769531 L 295.820312 120.808594 C 295.847656 120.808594 295.875 120.792969 295.886719 120.792969 C 296.132812 120.679688 296.132812 120.371094 296.402344 120.347656 C 296.738281 120.292969 297.101562 120.347656 297.359375 120.128906 C 297.769531 119.78125 297.769531 119.511719 297.796875 119 C 297.808594 118.910156 297.886719 118.847656 297.976562 118.847656 C 298.027344 118.847656 298.082031 118.871094 298.105469 118.910156 L 298.234375 119.0625 C 298.273438 119.113281 298.339844 119.140625 298.402344 119.140625 C 298.492188 119.140625 298.570312 119.078125 298.597656 118.988281 L 298.878906 117.628906 C 298.878906 117.589844 298.917969 117.550781 298.957031 117.550781 C 298.957031 117.550781 298.957031 117.550781 298.972656 117.550781 C 299.214844 117.5625 299.4375 117.449219 299.617188 117.191406 C 299.785156 116.972656 299.9375 116.730469 300.082031 116.449219 C 300.105469 116.410156 300.160156 116.371094 300.210938 116.371094 C 300.289062 116.371094 300.339844 116.4375 300.351562 116.511719 C 300.378906 117.011719 300.273438 117.960938 299.796875 118.269531 C 299.796875 118.269531 299.796875 118.269531 299.785156 118.28125 C 299.757812 118.292969 299.757812 118.347656 299.785156 118.371094 C 299.785156 118.371094 299.785156 118.371094 299.796875 118.371094 C 299.824219 118.398438 299.863281 118.421875 299.914062 118.4375 C 299.964844 118.449219 300.003906 118.472656 300.03125 118.527344 C 300.222656 118.910156 300.507812 119.628906 299.976562 119.859375 C 299.886719 119.898438 299.808594 119.921875 299.746094 119.949219 C 299.707031 119.960938 299.695312 120 299.695312 120.039062 C 299.695312 120.078125 299.707031 120.101562 299.734375 120.128906 C 299.925781 120.230469 300.082031 120.347656 300.195312 120.449219 C 300.789062 121 300.648438 122.050781 299.746094 122.140625 C 299.707031 122.152344 299.667969 122.179688 299.667969 122.21875 C 299.65625 122.5 299.511719 122.652344 299.242188 122.703125 C 299.203125 122.703125 299.164062 122.730469 299.152344 122.769531 L 299.125 122.933594 C 299.113281 122.972656 299.101562 123 299.0625 123.023438 L 298.53125 123.382812 C 298.519531 123.398438 298.507812 123.398438 298.480469 123.410156 C 298.285156 123.449219 298.054688 123.460938 297.808594 123.421875 C 297.808594 123.421875 297.796875 123.421875 297.796875 123.421875 C 297.796875 123.421875 297.785156 123.433594 297.785156 123.449219 L 297.785156 124.191406 C 297.785156 124.203125 297.796875 124.230469 297.824219 124.230469 L 300.585938 124.359375 C 300.636719 124.359375 300.699219 124.410156 300.714844 124.472656 C 300.753906 124.613281 300.726562 124.792969 300.648438 125.023438 C 300.636719 125.074219 300.585938 125.113281 300.53125 125.113281 L 299.964844 125.164062 C 299.914062 125.179688 299.875 125.21875 299.875 125.28125 C 299.875 125.308594 299.886719 125.34375 299.914062 125.359375 C 300.273438 125.613281 300.480469 125.988281 300.53125 126.460938 C 300.53125 126.5 300.558594 126.523438 300.597656 126.539062 L 303.449219 126.664062 C 303.5 126.664062 303.550781 126.71875 303.550781 126.78125 L 303.578125 127.164062 C 303.578125 127.164062 303.578125 127.164062 303.578125 127.179688 C 303.578125 127.21875 303.539062 127.253906 303.488281 127.253906 C 300.195312 127.421875 297.433594 127.5625 295.203125 127.679688 C 289.277344 128.011719 282.773438 128.34375 275.703125 128.703125 C 269.621094 129 263.582031 129.410156 257.671875 129.679688 C 256.71875 129.71875 255.644531 129.71875 254.472656 129.664062 C 249.554688 129.449219 244.390625 129.113281 239.578125 128.882812 C 232.46875 128.539062 224.902344 128.113281 216.929688 127.640625 C 214.476562 127.484375 211.261719 127.359375 209.378906 127.269531 C 209.328125 127.269531 209.289062 127.230469 209.289062 127.179688 L 209.289062 126.792969 C 209.289062 126.730469 209.339844 126.664062 209.417969 126.664062 L 212.164062 126.550781 C 212.230469 126.550781 212.28125 126.5 212.28125 126.449219 C 212.332031 126 212.539062 125.628906 212.902344 125.320312 C 212.914062 125.308594 212.925781 125.292969 212.925781 125.28125 C 212.925781 125.242188 212.902344 125.21875 212.875 125.21875 L 212.320312 125.101562 C 212.21875 125.074219 212.152344 125 212.140625 124.898438 L 212.101562 124.539062 C 212.101562 124.5 212.128906 124.460938 212.152344 124.433594 C 212.242188 124.382812 212.386719 124.359375 212.578125 124.359375 C 213.199219 124.332031 214.011719 124.28125 214.992188 124.203125 C 215.019531 124.203125 215.042969 124.179688 215.042969 124.140625 L 215.042969 123.5 C 215.042969 123.488281 215.03125 123.460938 215.019531 123.460938 L 214.4375 123.433594 C 214.371094 123.421875 214.320312 123.398438 214.269531 123.359375 C 214.257812 123.359375 214.203125 123.308594 214.113281 123.203125 C 213.972656 123.0625 213.777344 123.152344 213.6875 122.898438 C 213.675781 122.820312 213.664062 122.78125 213.648438 122.753906 C 213.636719 122.730469 213.597656 122.703125 213.558594 122.691406 C 213.300781 122.652344 213.171875 122.488281 213.171875 122.230469 C 213.171875 122.191406 213.148438 122.167969 213.109375 122.167969 C 212.074219 122.050781 212.074219 120.742188 212.863281 120.292969 C 213.003906 120.203125 213.109375 120.152344 213.148438 120.113281 C 213.160156 120.113281 213.160156 120.101562 213.160156 120.101562 C 213.199219 120.0625 213.183594 120.011719 213.148438 119.972656 C 213.148438 119.972656 213.132812 119.972656 213.132812 119.960938 C 212.980469 119.898438 212.875 119.859375 212.835938 119.832031 C 212.371094 119.613281 212.65625 118.921875 212.8125 118.550781 C 212.835938 118.488281 212.886719 118.449219 212.953125 118.4375 C 213.019531 118.421875 213.054688 118.398438 213.070312 118.359375 C 213.09375 118.320312 213.082031 118.28125 213.042969 118.257812 C 212.707031 118.050781 212.65625 117.691406 212.578125 117.28125 C 212.515625 116.949219 212.5 116.679688 212.527344 116.472656 C 212.539062 116.410156 212.589844 116.371094 212.65625 116.371094 C 212.695312 116.371094 212.746094 116.398438 212.757812 116.449219 C 212.851562 116.628906 213.390625 117.640625 213.753906 117.578125 C 213.804688 117.5625 213.84375 117.5625 213.871094 117.5625 C 213.90625 117.578125 213.945312 117.601562 213.945312 117.628906 C 214.101562 118.0625 214.191406 118.488281 214.203125 118.882812 C 214.21875 118.960938 214.269531 119.039062 214.371094 119.113281 C 214.386719 119.128906 214.398438 119.140625 214.410156 119.140625 C 214.425781 119.140625 214.449219 119.128906 214.464844 119.113281 L 214.773438 118.871094 C 214.796875 118.847656 214.824219 118.847656 214.863281 118.847656 C 214.941406 118.847656 215.003906 118.898438 215.003906 118.988281 C 215.03125 119.472656 215.058594 119.730469 215.40625 120.101562 C 215.613281 120.332031 216.167969 120.347656 216.410156 120.347656 C 216.503906 120.347656 216.578125 120.382812 216.632812 120.460938 L 216.875 120.757812 C 216.890625 120.78125 216.929688 120.792969 216.953125 120.792969 C 221.199219 120.792969 224.503906 120.792969 226.851562 120.78125 C 227.445312 120.78125 227.9375 120.757812 228.3125 120.730469 Z M 253.089844 52.300781 C 253.089844 52.261719 253.050781 52.222656 253.011719 52.222656 C 253 52.222656 253 52.222656 253 52.222656 L 252.910156 52.222656 C 252.859375 52.222656 252.832031 52.261719 252.832031 52.3125 L 252.832031 52.503906 C 252.832031 52.542969 252.871094 52.582031 252.921875 52.582031 L 253.011719 52.582031 C 253.066406 52.582031 253.101562 52.542969 253.101562 52.492188 Z M 259.929688 52.324219 C 259.929688 52.289062 259.890625 52.25 259.851562 52.25 L 259.75 52.25 C 259.699219 52.25 259.671875 52.289062 259.671875 52.324219 L 259.671875 52.503906 C 259.671875 52.542969 259.710938 52.582031 259.75 52.582031 L 259.851562 52.582031 C 259.890625 52.582031 259.929688 52.542969 259.929688 52.503906 Z M 252.664062 56.570312 C 252.664062 56.53125 252.640625 56.503906 252.601562 56.492188 L 252.355469 56.464844 C 252.316406 56.464844 252.289062 56.492188 252.277344 56.53125 L 252.25 56.824219 C 252.25 56.824219 252.25 56.839844 252.25 56.839844 C 252.25 56.875 252.277344 56.902344 252.316406 56.902344 L 252.5625 56.929688 C 252.601562 56.929688 252.625 56.902344 252.640625 56.863281 Z M 260.226562 56.929688 L 260.5625 56.875 C 260.574219 56.875 260.601562 56.851562 260.601562 56.839844 C 260.601562 56.839844 260.601562 56.824219 260.601562 56.824219 L 260.5625 56.621094 C 260.550781 56.53125 260.484375 56.464844 260.421875 56.464844 L 260.242188 56.492188 C 260.175781 56.503906 260.136719 56.582031 260.148438 56.671875 L 260.175781 56.890625 C 260.175781 56.902344 260.203125 56.929688 260.214844 56.929688 C 260.214844 56.929688 260.214844 56.929688 260.226562 56.929688 Z M 261.183594 61.3125 C 261.183594 61.273438 261.144531 61.234375 261.105469 61.234375 C 261.105469 61.234375 261.09375 61.234375 261.09375 61.234375 L 260.859375 61.261719 C 260.808594 61.261719 260.78125 61.300781 260.78125 61.335938 C 260.78125 61.335938 260.78125 61.335938 260.78125 61.351562 L 260.796875 61.621094 C 260.808594 61.660156 260.847656 61.695312 260.886719 61.695312 L 261.132812 61.671875 C 261.167969 61.671875 261.207031 61.632812 261.207031 61.59375 C 261.207031 61.59375 261.207031 61.59375 261.207031 61.582031 Z M 252.019531 61.351562 C 252.019531 61.335938 252.019531 61.335938 252.019531 61.335938 C 252.019531 61.300781 251.992188 61.273438 251.953125 61.273438 L 251.695312 61.261719 C 251.683594 61.261719 251.683594 61.261719 251.683594 61.261719 C 251.644531 61.261719 251.621094 61.285156 251.621094 61.324219 L 251.605469 61.59375 C 251.605469 61.59375 251.605469 61.59375 251.605469 61.605469 C 251.605469 61.632812 251.632812 61.671875 251.671875 61.671875 L 251.929688 61.683594 C 251.941406 61.683594 251.941406 61.683594 251.941406 61.683594 C 251.980469 61.683594 252.007812 61.660156 252.007812 61.621094 Z M 251.375 66.785156 C 251.375 66.722656 251.335938 66.683594 251.285156 66.671875 L 250.898438 66.644531 C 250.898438 66.644531 250.898438 66.644531 250.882812 66.644531 C 250.832031 66.644531 250.792969 66.683594 250.78125 66.746094 L 250.753906 67.09375 C 250.753906 67.105469 250.753906 67.105469 250.753906 67.105469 C 250.753906 67.15625 250.792969 67.210938 250.84375 67.210938 L 251.230469 67.246094 C 251.246094 67.246094 251.246094 67.246094 251.246094 67.246094 C 251.296875 67.246094 251.347656 67.195312 251.347656 67.144531 Z M 261.996094 66.695312 C 261.996094 66.65625 261.957031 66.632812 261.929688 66.632812 C 261.917969 66.632812 261.917969 66.632812 261.917969 66.632812 L 261.464844 66.671875 C 261.429688 66.671875 261.402344 66.695312 261.402344 66.734375 L 261.429688 67.171875 C 261.441406 67.210938 261.464844 67.234375 261.503906 67.234375 L 261.957031 67.210938 C 261.996094 67.210938 262.019531 67.171875 262.019531 67.132812 Z M 250.535156 72.992188 C 250.535156 72.976562 250.535156 72.976562 250.535156 72.976562 C 250.535156 72.953125 250.507812 72.925781 250.484375 72.925781 L 249.902344 72.875 C 249.890625 72.875 249.890625 72.875 249.890625 72.875 C 249.863281 72.875 249.839844 72.902344 249.839844 72.925781 L 249.785156 73.582031 C 249.785156 73.582031 249.785156 73.59375 249.785156 73.59375 C 249.785156 73.617188 249.800781 73.644531 249.839844 73.644531 L 250.417969 73.695312 C 250.457031 73.695312 250.484375 73.671875 250.484375 73.644531 Z M 262.949219 73.617188 C 262.988281 73.605469 263.015625 73.582031 263.015625 73.554688 L 262.988281 72.953125 C 262.988281 72.914062 262.964844 72.886719 262.925781 72.886719 L 262.34375 72.902344 C 262.304688 72.902344 262.28125 72.941406 262.28125 72.964844 L 262.316406 73.605469 C 262.316406 73.644531 262.34375 73.671875 262.371094 73.671875 C 262.371094 73.671875 262.382812 73.671875 262.382812 73.671875 Z M 249.320312 80.503906 C 249.320312 80.464844 249.296875 80.4375 249.257812 80.4375 L 248.445312 80.425781 C 248.40625 80.425781 248.378906 80.4375 248.378906 80.476562 L 248.316406 81.195312 C 248.316406 81.195312 248.316406 81.207031 248.316406 81.207031 C 248.316406 81.234375 248.339844 81.257812 248.367188 81.273438 L 249.179688 81.335938 C 249.21875 81.335938 249.246094 81.3125 249.246094 81.285156 Z M 264.449219 80.453125 C 264.449219 80.425781 264.421875 80.398438 264.394531 80.398438 C 264.382812 80.398438 264.382812 80.398438 264.382812 80.398438 L 263.609375 80.453125 C 263.570312 80.453125 263.542969 80.476562 263.542969 80.503906 C 263.542969 80.503906 263.542969 80.515625 263.542969 80.515625 L 263.597656 81.257812 C 263.597656 81.285156 263.621094 81.3125 263.660156 81.3125 L 264.449219 81.257812 C 264.472656 81.257812 264.5 81.234375 264.5 81.195312 Z M 246.894531 90.359375 C 246.921875 90.359375 246.933594 90.347656 246.933594 90.324219 L 246.949219 89.347656 C 246.949219 89.324219 246.933594 89.308594 246.921875 89.308594 L 246.058594 89.234375 C 246.058594 89.234375 246.042969 89.234375 246.042969 89.234375 C 246.03125 89.234375 246.019531 89.246094 246.003906 89.257812 L 245.902344 90.414062 C 245.902344 90.4375 245.929688 90.449219 245.941406 90.449219 C 245.941406 90.449219 245.941406 90.449219 245.953125 90.449219 Z M 265.90625 89.285156 C 265.894531 89.285156 265.867188 89.308594 265.867188 89.324219 C 265.867188 89.335938 265.867188 89.335938 265.867188 89.335938 L 265.90625 90.335938 C 265.90625 90.359375 265.933594 90.375 265.957031 90.375 L 266.914062 90.425781 C 266.9375 90.425781 266.953125 90.398438 266.953125 90.386719 C 266.953125 90.375 266.953125 90.375 266.953125 90.375 L 266.847656 89.285156 C 266.847656 89.269531 266.824219 89.246094 266.808594 89.246094 C 266.808594 89.246094 266.796875 89.246094 266.796875 89.246094 Z M 240.042969 115.871094 C 239.886719 115.667969 239.707031 115.460938 239.976562 115.269531 C 239.992188 115.242188 240.003906 115.21875 240.015625 115.191406 L 240.054688 114.769531 C 240.054688 114.71875 240.09375 114.679688 240.144531 114.679688 C 240.171875 114.679688 240.183594 114.679688 240.183594 114.679688 C 240.234375 114.667969 240.261719 114.628906 240.261719 114.578125 C 240.3125 112.757812 240.367188 110.421875 240.441406 107.566406 C 240.457031 107.050781 240.351562 106.679688 240.273438 106.230469 C 240.273438 106.167969 240.234375 106.117188 240.171875 106.078125 L 239.953125 105.925781 C 239.9375 105.910156 239.914062 105.886719 239.902344 105.859375 L 239.808594 105.601562 C 239.796875 105.566406 239.773438 105.539062 239.734375 105.527344 L 239.371094 105.320312 C 239.359375 105.308594 239.347656 105.296875 239.332031 105.28125 L 239.214844 105.078125 C 239.191406 105.039062 239.164062 105.015625 239.125 104.988281 C 238.828125 104.835938 238.636719 104.746094 238.53125 104.71875 C 238.222656 104.65625 237.847656 104.601562 237.371094 104.589844 C 237.359375 104.589844 237.332031 104.589844 237.320312 104.601562 L 236.507812 105.050781 C 236.492188 105.050781 236.46875 105.066406 236.441406 105.066406 L 236.09375 105.101562 C 236.027344 105.101562 235.976562 105.128906 235.9375 105.179688 C 235.914062 105.21875 235.847656 105.296875 235.746094 105.4375 C 235.617188 105.589844 235.472656 105.65625 235.304688 105.628906 C 235.28125 105.628906 235.253906 105.640625 235.242188 105.667969 C 235.136719 105.910156 235.046875 106.230469 234.75 106.425781 C 234.53125 106.566406 234.300781 106.691406 234.027344 106.835938 C 234.003906 106.847656 233.988281 106.871094 233.988281 106.898438 C 233.898438 110.757812 233.847656 113.167969 233.835938 114.140625 C 233.820312 114.511719 233.835938 114.898438 233.859375 115.28125 C 233.859375 115.320312 233.886719 115.347656 233.925781 115.359375 C 234.042969 115.371094 234.09375 115.4375 234.105469 115.539062 C 234.132812 115.71875 234.183594 115.871094 234.261719 115.988281 C 234.507812 116.359375 234.53125 116.742188 234.15625 117.011719 C 234.144531 117.027344 234.132812 117.039062 234.132812 117.050781 C 234.132812 117.0625 234.144531 117.0625 234.144531 117.078125 C 234.273438 117.191406 234.402344 117.203125 234.519531 117.101562 C 234.519531 117.101562 234.53125 117.089844 234.542969 117.089844 C 234.570312 117.089844 234.597656 117.117188 234.597656 117.140625 L 234.542969 117.667969 C 234.542969 117.703125 234.570312 117.730469 234.609375 117.730469 L 234.839844 117.703125 C 234.917969 117.703125 234.996094 117.757812 234.996094 117.847656 L 235.0625 118.472656 C 235.0625 118.5 235.085938 118.527344 235.125 118.527344 L 238.957031 118.449219 C 239.011719 118.449219 239.0625 118.410156 239.0625 118.359375 L 239.085938 117.820312 C 239.085938 117.808594 239.085938 117.808594 239.085938 117.808594 C 239.085938 117.769531 239.050781 117.730469 239.011719 117.730469 C 238.457031 117.730469 238.507812 117.4375 238.53125 116.988281 C 238.53125 116.949219 238.507812 116.921875 238.46875 116.921875 C 237.863281 116.988281 237.472656 116.460938 237.421875 115.9375 C 237.398438 115.691406 237.511719 115.382812 237.695312 115.242188 C 237.734375 115.230469 237.769531 115.21875 237.796875 115.21875 C 237.886719 115.21875 237.964844 115.269531 237.976562 115.359375 L 238.082031 115.898438 C 238.09375 115.9375 238.132812 115.960938 238.171875 115.960938 C 238.210938 115.960938 238.234375 115.949219 238.25 115.921875 C 238.570312 115.449219 238.855469 115.5 239.230469 115.871094 C 239.242188 115.898438 239.269531 115.910156 239.292969 115.910156 L 239.992188 115.972656 C 239.992188 115.972656 240.003906 115.972656 240.003906 115.972656 C 240.03125 115.972656 240.054688 115.949219 240.054688 115.910156 C 240.054688 115.898438 240.054688 115.882812 240.042969 115.871094 Z M 272.8125 115.230469 C 272.863281 115.230469 272.902344 115.257812 272.914062 115.28125 C 273.054688 115.511719 273.015625 115.707031 272.8125 115.859375 C 272.785156 115.871094 272.785156 115.882812 272.785156 115.910156 C 272.785156 115.9375 272.796875 115.960938 272.835938 115.960938 C 272.835938 115.960938 272.847656 115.960938 272.847656 115.949219 C 273.082031 115.898438 273.261719 115.871094 273.429688 115.898438 C 273.480469 115.898438 273.535156 115.882812 273.585938 115.859375 C 273.867188 115.667969 273.984375 115.5 274.347656 115.652344 C 274.371094 115.667969 274.398438 115.691406 274.425781 115.71875 L 274.539062 115.882812 C 274.554688 115.921875 274.59375 115.949219 274.628906 115.949219 C 274.683594 115.949219 274.722656 115.910156 274.734375 115.871094 L 274.925781 115.347656 C 274.941406 115.296875 274.992188 115.257812 275.054688 115.257812 C 275.09375 115.257812 275.121094 115.269531 275.148438 115.296875 C 275.777344 115.859375 275.210938 117.027344 274.347656 116.921875 C 274.320312 116.921875 274.296875 116.949219 274.296875 116.972656 C 274.296875 116.988281 274.296875 116.988281 274.296875 116.988281 C 274.320312 117.179688 274.308594 117.371094 274.269531 117.5625 C 274.242188 117.640625 274.179688 117.703125 274.101562 117.703125 L 273.792969 117.742188 C 273.753906 117.742188 273.738281 117.769531 273.738281 117.792969 L 273.726562 118.371094 C 273.726562 118.410156 273.753906 118.4375 273.792969 118.449219 L 277.652344 118.511719 C 277.714844 118.527344 277.753906 118.472656 277.753906 118.421875 L 277.816406 117.792969 C 277.816406 117.742188 277.871094 117.691406 277.921875 117.691406 L 278.179688 117.703125 C 278.179688 117.703125 278.191406 117.703125 278.191406 117.703125 C 278.21875 117.703125 278.246094 117.679688 278.246094 117.640625 L 278.191406 117.128906 C 278.191406 117.128906 278.191406 117.117188 278.191406 117.117188 C 278.207031 117.089844 278.21875 117.078125 278.246094 117.078125 C 278.257812 117.078125 278.257812 117.078125 278.257812 117.078125 C 278.335938 117.117188 278.425781 117.128906 278.554688 117.140625 C 278.554688 117.140625 278.566406 117.140625 278.566406 117.140625 C 278.617188 117.140625 278.65625 117.089844 278.65625 117.039062 C 278.65625 117 278.644531 116.960938 278.605469 116.949219 C 278.21875 116.742188 278.359375 116.230469 278.605469 115.949219 C 278.644531 115.921875 278.671875 115.871094 278.683594 115.820312 L 278.746094 115.511719 C 278.746094 115.472656 278.773438 115.449219 278.8125 115.4375 C 278.875 115.410156 278.914062 115.382812 278.941406 115.359375 C 278.96875 115.332031 278.980469 115.296875 278.980469 115.257812 C 279.003906 114.640625 279.019531 114.21875 279.003906 114 C 278.941406 111.027344 278.890625 108.679688 278.863281 106.9375 C 278.863281 106.898438 278.835938 106.859375 278.800781 106.835938 L 278.023438 106.386719 C 277.933594 106.347656 277.871094 106.269531 277.832031 106.167969 L 277.625 105.617188 C 277.613281 105.601562 277.597656 105.589844 277.574219 105.589844 C 277.558594 105.589844 277.558594 105.589844 277.546875 105.589844 C 277.25 105.757812 277.058594 105.410156 276.863281 105.179688 C 276.824219 105.140625 276.773438 105.117188 276.722656 105.128906 C 276.167969 105.191406 275.894531 104.667969 275.339844 104.617188 C 274.695312 104.566406 274.113281 104.691406 273.625 105 C 273.585938 105.027344 273.558594 105.050781 273.546875 105.089844 L 273.46875 105.308594 C 273.457031 105.347656 273.417969 105.386719 273.367188 105.398438 L 273.171875 105.449219 C 273.121094 105.460938 273.082031 105.5 273.070312 105.550781 L 272.980469 105.769531 C 272.980469 105.808594 272.953125 105.835938 272.925781 105.859375 L 272.617188 106.101562 C 272.589844 106.128906 272.566406 106.15625 272.566406 106.179688 C 272.5 106.386719 272.539062 106.667969 272.460938 106.898438 C 272.410156 107.027344 272.386719 107.117188 272.386719 107.167969 C 272.460938 109.371094 272.515625 111.550781 272.566406 113.707031 C 272.566406 113.832031 272.578125 114.101562 272.605469 114.539062 C 272.605469 114.578125 272.628906 114.617188 272.65625 114.628906 C 272.824219 114.730469 272.863281 114.898438 272.773438 115.140625 C 272.757812 115.152344 272.757812 115.152344 272.757812 115.167969 C 272.757812 115.191406 272.785156 115.21875 272.8125 115.230469 Z M 269.699219 113.140625 L 270.976562 113.152344 C 271.003906 113.152344 271.03125 113.179688 271.03125 113.21875 L 271.070312 114.617188 C 271.070312 114.667969 271.09375 114.691406 271.144531 114.691406 L 271.765625 114.679688 C 271.828125 114.679688 271.882812 114.628906 271.882812 114.5625 L 271.738281 107.128906 C 271.738281 107.089844 271.726562 107.050781 271.699219 107.027344 C 271.648438 106.988281 271.597656 106.9375 271.53125 106.898438 C 271.378906 106.808594 271.261719 106.539062 271.171875 106.410156 C 271.132812 106.359375 271.082031 106.335938 271.015625 106.335938 C 270.808594 106.320312 270.667969 106.269531 270.589844 106.15625 C 270.578125 106.140625 270.566406 106.140625 270.550781 106.140625 C 270.539062 106.140625 270.527344 106.140625 270.511719 106.140625 L 270.050781 106.511719 C 270.035156 106.527344 270.023438 106.550781 270.011719 106.566406 L 269.90625 106.808594 C 269.894531 106.847656 269.855469 106.886719 269.828125 106.910156 L 269.636719 107.027344 C 269.597656 107.050781 269.570312 107.089844 269.570312 107.140625 L 269.6875 113.140625 C 269.6875 113.140625 269.699219 113.140625 269.699219 113.140625 Z M 243.164062 113.089844 C 243.21875 111.410156 243.257812 109.601562 243.269531 107.65625 C 243.269531 107.539062 243.269531 107.476562 243.269531 107.460938 C 243.28125 107.269531 243.230469 107.117188 243.113281 107 C 243 106.886719 242.921875 106.78125 242.867188 106.707031 C 242.765625 106.527344 242.585938 106.371094 242.328125 106.230469 C 242.3125 106.21875 242.289062 106.21875 242.273438 106.21875 L 241.734375 106.371094 C 241.707031 106.386719 241.683594 106.398438 241.65625 106.425781 L 241.140625 107.066406 C 241.113281 107.089844 241.101562 107.128906 241.101562 107.179688 L 240.945312 114.691406 C 240.945312 114.707031 240.957031 114.730469 240.984375 114.730469 L 241.773438 114.691406 C 241.796875 114.691406 241.8125 114.679688 241.8125 114.652344 L 241.835938 113.207031 C 241.835938 113.167969 241.863281 113.140625 241.902344 113.140625 L 243.089844 113.167969 C 243.128906 113.167969 243.164062 113.140625 243.164062 113.089844 Z M 243.164062 113.089844 " fill-opacity="1" fill-rule="evenodd"/></g></svg>